G04 #@! TF.GenerationSoftware,KiCad,Pcbnew,(5.1.5-0-10_14)*
G04 #@! TF.CreationDate,2020-03-02T21:40:52+02:00*
G04 #@! TF.ProjectId,EVESP,45564553-502e-46b6-9963-61645f706362,rev?*
G04 #@! TF.SameCoordinates,Original*
G04 #@! TF.FileFunction,Soldermask,Bot*
G04 #@! TF.FilePolarity,Negative*
%FSLAX46Y46*%
G04 Gerber Fmt 4.6, Leading zero omitted, Abs format (unit mm)*
G04 Created by KiCad (PCBNEW (5.1.5-0-10_14)) date 2020-03-02 21:40:52*
%MOMM*%
%LPD*%
G04 APERTURE LIST*
%ADD10C,4.300000*%
%ADD11C,3.000000*%
%ADD12R,3.000000X3.000000*%
%ADD13O,2.600000X2.000000*%
%ADD14C,0.100000*%
%ADD15O,2.000000X2.600000*%
%ADD16O,1.700000X1.700000*%
%ADD17R,1.700000X1.700000*%
%ADD18C,1.800000*%
%ADD19C,2.300000*%
%ADD20R,2.300000X2.000000*%
%ADD21O,1.700000X1.950000*%
%ADD22C,1.600000*%
G04 APERTURE END LIST*
D10*
X140335000Y-68580000D03*
X140335000Y-158750000D03*
X49530000Y-158750000D03*
X49530000Y-68580000D03*
D11*
X48895000Y-124460000D03*
D12*
X48895000Y-129540000D03*
D11*
X48895000Y-135128000D03*
D12*
X48895000Y-140208000D03*
D11*
X48895000Y-145796000D03*
D12*
X48895000Y-150876000D03*
D11*
X48895000Y-113792000D03*
D12*
X48895000Y-118872000D03*
D13*
X140335000Y-131725000D03*
X140335000Y-135225000D03*
X140335000Y-138725000D03*
X140335000Y-142225000D03*
X140335000Y-145725000D03*
D14*
G36*
X141409504Y-148226204D02*
G01*
X141433773Y-148229804D01*
X141457571Y-148235765D01*
X141480671Y-148244030D01*
X141502849Y-148254520D01*
X141523893Y-148267133D01*
X141543598Y-148281747D01*
X141561777Y-148298223D01*
X141578253Y-148316402D01*
X141592867Y-148336107D01*
X141605480Y-148357151D01*
X141615970Y-148379329D01*
X141624235Y-148402429D01*
X141630196Y-148426227D01*
X141633796Y-148450496D01*
X141635000Y-148475000D01*
X141635000Y-149975000D01*
X141633796Y-149999504D01*
X141630196Y-150023773D01*
X141624235Y-150047571D01*
X141615970Y-150070671D01*
X141605480Y-150092849D01*
X141592867Y-150113893D01*
X141578253Y-150133598D01*
X141561777Y-150151777D01*
X141543598Y-150168253D01*
X141523893Y-150182867D01*
X141502849Y-150195480D01*
X141480671Y-150205970D01*
X141457571Y-150214235D01*
X141433773Y-150220196D01*
X141409504Y-150223796D01*
X141385000Y-150225000D01*
X139285000Y-150225000D01*
X139260496Y-150223796D01*
X139236227Y-150220196D01*
X139212429Y-150214235D01*
X139189329Y-150205970D01*
X139167151Y-150195480D01*
X139146107Y-150182867D01*
X139126402Y-150168253D01*
X139108223Y-150151777D01*
X139091747Y-150133598D01*
X139077133Y-150113893D01*
X139064520Y-150092849D01*
X139054030Y-150070671D01*
X139045765Y-150047571D01*
X139039804Y-150023773D01*
X139036204Y-149999504D01*
X139035000Y-149975000D01*
X139035000Y-148475000D01*
X139036204Y-148450496D01*
X139039804Y-148426227D01*
X139045765Y-148402429D01*
X139054030Y-148379329D01*
X139064520Y-148357151D01*
X139077133Y-148336107D01*
X139091747Y-148316402D01*
X139108223Y-148298223D01*
X139126402Y-148281747D01*
X139146107Y-148267133D01*
X139167151Y-148254520D01*
X139189329Y-148244030D01*
X139212429Y-148235765D01*
X139236227Y-148229804D01*
X139260496Y-148226204D01*
X139285000Y-148225000D01*
X141385000Y-148225000D01*
X141409504Y-148226204D01*
G37*
D15*
X103490000Y-67945000D03*
X106990000Y-67945000D03*
D14*
G36*
X111264504Y-66646204D02*
G01*
X111288773Y-66649804D01*
X111312571Y-66655765D01*
X111335671Y-66664030D01*
X111357849Y-66674520D01*
X111378893Y-66687133D01*
X111398598Y-66701747D01*
X111416777Y-66718223D01*
X111433253Y-66736402D01*
X111447867Y-66756107D01*
X111460480Y-66777151D01*
X111470970Y-66799329D01*
X111479235Y-66822429D01*
X111485196Y-66846227D01*
X111488796Y-66870496D01*
X111490000Y-66895000D01*
X111490000Y-68995000D01*
X111488796Y-69019504D01*
X111485196Y-69043773D01*
X111479235Y-69067571D01*
X111470970Y-69090671D01*
X111460480Y-69112849D01*
X111447867Y-69133893D01*
X111433253Y-69153598D01*
X111416777Y-69171777D01*
X111398598Y-69188253D01*
X111378893Y-69202867D01*
X111357849Y-69215480D01*
X111335671Y-69225970D01*
X111312571Y-69234235D01*
X111288773Y-69240196D01*
X111264504Y-69243796D01*
X111240000Y-69245000D01*
X109740000Y-69245000D01*
X109715496Y-69243796D01*
X109691227Y-69240196D01*
X109667429Y-69234235D01*
X109644329Y-69225970D01*
X109622151Y-69215480D01*
X109601107Y-69202867D01*
X109581402Y-69188253D01*
X109563223Y-69171777D01*
X109546747Y-69153598D01*
X109532133Y-69133893D01*
X109519520Y-69112849D01*
X109509030Y-69090671D01*
X109500765Y-69067571D01*
X109494804Y-69043773D01*
X109491204Y-69019504D01*
X109490000Y-68995000D01*
X109490000Y-66895000D01*
X109491204Y-66870496D01*
X109494804Y-66846227D01*
X109500765Y-66822429D01*
X109509030Y-66799329D01*
X109519520Y-66777151D01*
X109532133Y-66756107D01*
X109546747Y-66736402D01*
X109563223Y-66718223D01*
X109581402Y-66701747D01*
X109601107Y-66687133D01*
X109622151Y-66674520D01*
X109644329Y-66664030D01*
X109667429Y-66655765D01*
X109691227Y-66649804D01*
X109715496Y-66646204D01*
X109740000Y-66645000D01*
X111240000Y-66645000D01*
X111264504Y-66646204D01*
G37*
D16*
X143510000Y-125095000D03*
X143510000Y-122555000D03*
X143510000Y-120015000D03*
X143510000Y-117475000D03*
X143510000Y-114935000D03*
X143510000Y-112395000D03*
X143510000Y-109855000D03*
X143510000Y-107315000D03*
X143510000Y-104775000D03*
X143510000Y-102235000D03*
X143510000Y-99695000D03*
X143510000Y-97155000D03*
X143510000Y-94615000D03*
X143510000Y-92075000D03*
X143510000Y-89535000D03*
X143510000Y-86995000D03*
X143510000Y-84455000D03*
X143510000Y-81915000D03*
X143510000Y-79375000D03*
D17*
X143510000Y-76835000D03*
D16*
X139065000Y-125095000D03*
X139065000Y-122555000D03*
X139065000Y-120015000D03*
X139065000Y-117475000D03*
X139065000Y-114935000D03*
X139065000Y-112395000D03*
X139065000Y-109855000D03*
X139065000Y-107315000D03*
X139065000Y-104775000D03*
X139065000Y-102235000D03*
X139065000Y-99695000D03*
X139065000Y-97155000D03*
X139065000Y-94615000D03*
X139065000Y-92075000D03*
X139065000Y-89535000D03*
X139065000Y-86995000D03*
X139065000Y-84455000D03*
X139065000Y-81915000D03*
X139065000Y-79375000D03*
D17*
X139065000Y-76835000D03*
D16*
X116205000Y-114935000D03*
X116205000Y-112395000D03*
X116205000Y-109855000D03*
X116205000Y-107315000D03*
X116205000Y-104775000D03*
X116205000Y-102235000D03*
X116205000Y-99695000D03*
X116205000Y-97155000D03*
X116205000Y-94615000D03*
X116205000Y-92075000D03*
X116205000Y-89535000D03*
X116205000Y-86995000D03*
X116205000Y-84455000D03*
X116205000Y-81915000D03*
X116205000Y-79375000D03*
D17*
X116205000Y-76835000D03*
D16*
X111760000Y-114935000D03*
X111760000Y-112395000D03*
X111760000Y-109855000D03*
X111760000Y-107315000D03*
X111760000Y-104775000D03*
X111760000Y-102235000D03*
X111760000Y-99695000D03*
X111760000Y-97155000D03*
X111760000Y-94615000D03*
X111760000Y-92075000D03*
X111760000Y-89535000D03*
X111760000Y-86995000D03*
X111760000Y-84455000D03*
X111760000Y-81915000D03*
X111760000Y-79375000D03*
D17*
X111760000Y-76835000D03*
D15*
X103520000Y-158115000D03*
X100020000Y-158115000D03*
D14*
G36*
X97294504Y-156816204D02*
G01*
X97318773Y-156819804D01*
X97342571Y-156825765D01*
X97365671Y-156834030D01*
X97387849Y-156844520D01*
X97408893Y-156857133D01*
X97428598Y-156871747D01*
X97446777Y-156888223D01*
X97463253Y-156906402D01*
X97477867Y-156926107D01*
X97490480Y-156947151D01*
X97500970Y-156969329D01*
X97509235Y-156992429D01*
X97515196Y-157016227D01*
X97518796Y-157040496D01*
X97520000Y-157065000D01*
X97520000Y-159165000D01*
X97518796Y-159189504D01*
X97515196Y-159213773D01*
X97509235Y-159237571D01*
X97500970Y-159260671D01*
X97490480Y-159282849D01*
X97477867Y-159303893D01*
X97463253Y-159323598D01*
X97446777Y-159341777D01*
X97428598Y-159358253D01*
X97408893Y-159372867D01*
X97387849Y-159385480D01*
X97365671Y-159395970D01*
X97342571Y-159404235D01*
X97318773Y-159410196D01*
X97294504Y-159413796D01*
X97270000Y-159415000D01*
X95770000Y-159415000D01*
X95745496Y-159413796D01*
X95721227Y-159410196D01*
X95697429Y-159404235D01*
X95674329Y-159395970D01*
X95652151Y-159385480D01*
X95631107Y-159372867D01*
X95611402Y-159358253D01*
X95593223Y-159341777D01*
X95576747Y-159323598D01*
X95562133Y-159303893D01*
X95549520Y-159282849D01*
X95539030Y-159260671D01*
X95530765Y-159237571D01*
X95524804Y-159213773D01*
X95521204Y-159189504D01*
X95520000Y-159165000D01*
X95520000Y-157065000D01*
X95521204Y-157040496D01*
X95524804Y-157016227D01*
X95530765Y-156992429D01*
X95539030Y-156969329D01*
X95549520Y-156947151D01*
X95562133Y-156926107D01*
X95576747Y-156906402D01*
X95593223Y-156888223D01*
X95611402Y-156871747D01*
X95631107Y-156857133D01*
X95652151Y-156844520D01*
X95674329Y-156834030D01*
X95697429Y-156825765D01*
X95721227Y-156819804D01*
X95745496Y-156816204D01*
X95770000Y-156815000D01*
X97270000Y-156815000D01*
X97294504Y-156816204D01*
G37*
D18*
X61080000Y-136935000D03*
X68580000Y-140335000D03*
X61080000Y-146460000D03*
X68580000Y-149860000D03*
X61080000Y-155985000D03*
X68580000Y-159385000D03*
D19*
X85785000Y-99040000D03*
X57785000Y-106640000D03*
D20*
X57785000Y-91440000D03*
D19*
X85785000Y-91440000D03*
X85785000Y-75545000D03*
X57785000Y-83145000D03*
D20*
X57785000Y-67945000D03*
D19*
X85785000Y-67945000D03*
X85785000Y-122535000D03*
X57785000Y-130135000D03*
D20*
X57785000Y-114935000D03*
D19*
X85785000Y-114935000D03*
D21*
X131960000Y-159385000D03*
X129460000Y-159385000D03*
X126960000Y-159385000D03*
D14*
G36*
X125084504Y-158411204D02*
G01*
X125108773Y-158414804D01*
X125132571Y-158420765D01*
X125155671Y-158429030D01*
X125177849Y-158439520D01*
X125198893Y-158452133D01*
X125218598Y-158466747D01*
X125236777Y-158483223D01*
X125253253Y-158501402D01*
X125267867Y-158521107D01*
X125280480Y-158542151D01*
X125290970Y-158564329D01*
X125299235Y-158587429D01*
X125305196Y-158611227D01*
X125308796Y-158635496D01*
X125310000Y-158660000D01*
X125310000Y-160110000D01*
X125308796Y-160134504D01*
X125305196Y-160158773D01*
X125299235Y-160182571D01*
X125290970Y-160205671D01*
X125280480Y-160227849D01*
X125267867Y-160248893D01*
X125253253Y-160268598D01*
X125236777Y-160286777D01*
X125218598Y-160303253D01*
X125198893Y-160317867D01*
X125177849Y-160330480D01*
X125155671Y-160340970D01*
X125132571Y-160349235D01*
X125108773Y-160355196D01*
X125084504Y-160358796D01*
X125060000Y-160360000D01*
X123860000Y-160360000D01*
X123835496Y-160358796D01*
X123811227Y-160355196D01*
X123787429Y-160349235D01*
X123764329Y-160340970D01*
X123742151Y-160330480D01*
X123721107Y-160317867D01*
X123701402Y-160303253D01*
X123683223Y-160286777D01*
X123666747Y-160268598D01*
X123652133Y-160248893D01*
X123639520Y-160227849D01*
X123629030Y-160205671D01*
X123620765Y-160182571D01*
X123614804Y-160158773D01*
X123611204Y-160134504D01*
X123610000Y-160110000D01*
X123610000Y-158660000D01*
X123611204Y-158635496D01*
X123614804Y-158611227D01*
X123620765Y-158587429D01*
X123629030Y-158564329D01*
X123639520Y-158542151D01*
X123652133Y-158521107D01*
X123666747Y-158501402D01*
X123683223Y-158483223D01*
X123701402Y-158466747D01*
X123721107Y-158452133D01*
X123742151Y-158439520D01*
X123764329Y-158429030D01*
X123787429Y-158420765D01*
X123811227Y-158414804D01*
X123835496Y-158411204D01*
X123860000Y-158410000D01*
X125060000Y-158410000D01*
X125084504Y-158411204D01*
G37*
D11*
X48895000Y-82175000D03*
X48895000Y-104775000D03*
D22*
X97155000Y-118150000D03*
X97155000Y-120650000D03*
X97155000Y-97830000D03*
X97155000Y-100330000D03*
X93980000Y-69255000D03*
X93980000Y-71755000D03*
M02*
