M48
; DRILL file {KiCad (5.1.5-0-10_14)} date 2020 March 02, Monday 21:40:42
; FORMAT={-:-/ absolute / metric / decimal}
; #@! TF.CreationDate,2020-03-02T21:40:42+02:00
; #@! TF.GenerationSoftware,Kicad,Pcbnew,(5.1.5-0-10_14)
FMAT,2
METRIC
T1C0.400
T2C0.760
T3C0.800
T4C0.950
T5C1.000
T6C1.500
T7C1.520
T8C1.600
T9C4.300
%
G90
G05
T1
X88.336Y-131.445
X88.9Y-143.51
X89.535Y-145.415
X92.075Y-90.17
X92.71Y-74.93
X92.71Y-145.415
X94.615Y-133.35
X95.245Y-132.075
X97.155Y-139.065
X97.155Y-151.13
X97.536Y-94.488
X98.425Y-130.175
X98.425Y-140.97
X98.425Y-146.05
X100.33Y-130.175
X100.965Y-118.745
X102.235Y-83.82
X102.616Y-122.428
X104.14Y-98.552
X104.14Y-142.875
X104.648Y-94.996
X105.41Y-135.255
X105.41Y-138.43
X105.664Y-101.092
X106.68Y-132.08
X109.855Y-72.39
X112.395Y-134.62
X114.17Y-127.66
X116.205Y-129.54
X116.205Y-142.875
X116.84Y-155.575
X118.11Y-133.35
X118.57Y-122.74
X119.38Y-126.365
X120.396Y-114.808
X120.65Y-124.46
X121.285Y-158.115
X121.92Y-78.74
X121.92Y-132.715
X121.92Y-135.04
X122.555Y-138.43
X122.555Y-142.875
X122.555Y-144.145
X122.555Y-148.59
X123.19Y-151.765
X125.095Y-146.685
X128.524Y-123.952
X130.175Y-150.495
X131.445Y-110.49
X131.445Y-114.3
X133.35Y-144.78
X133.35Y-153.67
X134.62Y-104.14
X135.255Y-114.3
X135.89Y-80.645
X136.525Y-124.46
T2
X85.785Y-67.945
X85.785Y-75.545
X85.785Y-114.935
X85.785Y-122.535
X85.785Y-91.44
X85.785Y-99.04
T3
X97.155Y-97.83
X97.155Y-100.33
X57.785Y-114.935
X57.785Y-130.135
X57.785Y-91.44
X57.785Y-106.64
X61.08Y-146.46
X68.58Y-149.86
X93.98Y-69.255
X93.98Y-71.755
X97.155Y-118.15
X97.155Y-120.65
X57.785Y-67.945
X57.785Y-83.145
X61.08Y-155.985
X68.58Y-159.385
X61.08Y-136.935
X68.58Y-140.335
T4
X124.46Y-159.385
X126.96Y-159.385
X129.46Y-159.385
X131.96Y-159.385
T5
X111.76Y-76.835
X111.76Y-79.375
X111.76Y-81.915
X111.76Y-84.455
X111.76Y-86.995
X111.76Y-89.535
X111.76Y-92.075
X111.76Y-94.615
X111.76Y-97.155
X111.76Y-99.695
X111.76Y-102.235
X111.76Y-104.775
X111.76Y-107.315
X111.76Y-109.855
X111.76Y-112.395
X111.76Y-114.935
X143.51Y-76.835
X143.51Y-79.375
X143.51Y-81.915
X143.51Y-84.455
X143.51Y-86.995
X143.51Y-89.535
X143.51Y-92.075
X143.51Y-94.615
X143.51Y-97.155
X143.51Y-99.695
X143.51Y-102.235
X143.51Y-104.775
X143.51Y-107.315
X143.51Y-109.855
X143.51Y-112.395
X143.51Y-114.935
X143.51Y-117.475
X143.51Y-120.015
X143.51Y-122.555
X143.51Y-125.095
X139.065Y-76.835
X139.065Y-79.375
X139.065Y-81.915
X139.065Y-84.455
X139.065Y-86.995
X139.065Y-89.535
X139.065Y-92.075
X139.065Y-94.615
X139.065Y-97.155
X139.065Y-99.695
X139.065Y-102.235
X139.065Y-104.775
X139.065Y-107.315
X139.065Y-109.855
X139.065Y-112.395
X139.065Y-114.935
X139.065Y-117.475
X139.065Y-120.015
X139.065Y-122.555
X139.065Y-125.095
X116.205Y-76.835
X116.205Y-79.375
X116.205Y-81.915
X116.205Y-84.455
X116.205Y-86.995
X116.205Y-89.535
X116.205Y-92.075
X116.205Y-94.615
X116.205Y-97.155
X116.205Y-99.695
X116.205Y-102.235
X116.205Y-104.775
X116.205Y-107.315
X116.205Y-109.855
X116.205Y-112.395
X116.205Y-114.935
T6
X48.895Y-82.175
X48.895Y-104.775
T7
X48.895Y-135.128
X48.895Y-140.208
X48.895Y-145.796
X48.895Y-150.876
X48.895Y-124.46
X48.895Y-129.54
X48.895Y-113.792
X48.895Y-118.872
T8
X140.335Y-131.725
X140.335Y-135.225
X140.335Y-138.725
X140.335Y-142.225
X140.335Y-145.725
X140.335Y-149.225
X96.52Y-158.115
X100.02Y-158.115
X103.52Y-158.115
X103.49Y-67.945
X106.99Y-67.945
X110.49Y-67.945
T9
X49.53Y-158.75
X140.335Y-68.58
X49.53Y-68.58
X140.335Y-158.75
T0
M30
